:SAMPLES-PER-SECOND 30
:FULLY-SPECIFIED
:DEGREES
364
root  23.2179 37.4664 2.43217 67.7524 86.1324 55.0229
RightUpLeg  -34.6339 -10.4738 -7.48163
RightLeg  35.5538 -3.81388 -3.20009
RightFoot  -9.19072 -0.123451 3.26584
RightToes  -3.31784e-009 0 -3.6325e-017
Spine  41.6024 -0.508599 4.39676
Spine1  0.536527 0.956331 0.709676
HEad  -34.2123 -1.74126 -7.81441
LeftShoulder1  0.834532 0.996494 -27.088
LeftArm  6.10761 -12.3906 -48.6793
LeftForeArm  23.2485 -27.9911 -4.84065
LeftHand  0.00170324 6.22207 4.1883
RightShoulder  -0.178263 -4.00558 27.3849
RightArm  21.9233 0.683372 44.9331
RightForeArm  12.2832 11.4716 8.28382
RightHand  -0.490922 7.09164 -4.81809
LeftUpLeg  -33.001 12.7734 1.90774
LeftLeg  29.8634 0.338142 0.546279
LeftFoot  -3.9793 0.1982 -2.72768
LeftToes  1.28511e-009 -3.60458e-011 6.16399e-011
365
root  23.9376 38.302 2.64746 61.3063 85.2357 49.0123
RightUpLeg  -29.3627 -12.5311 -7.40301
RightLeg  28.1546 -1.50338 -1.09766
RightFoot  -7.90816 -0.149549 3.18682
RightToes  -3.31784e-009 0 -3.6325e-017
Spine  39.074 -0.420738 3.97
Spine1  0.413185 0.914702 0.137746
HEad  -32.3902 -0.69819 -8.43931
LeftShoulder1  0.718974 1.39843 -28.1664
LeftArm  8.80957 -9.02907 -47.1533
LeftForeArm  19.628 -18.7647 -5.23001
LeftHand  0.0265831 7.91137 3.07271
RightShoulder  -0.342261 -4.46897 28.3538
RightArm  19.5627 -4.5939 44.563
RightForeArm  16.4997 10.1891 8.11895
RightHand  -0.153211 4.61658 -2.12232
LeftUpLeg  -27.2762 13.5446 1.92962
LeftLeg  22.2184 0.227713 0.442161
LeftFoot  -0.674414 0.318063 -3.35115
LeftToes  1.28511e-009 -3.60458e-011 6.16399e-011
366
root  24.6723 38.9036 2.90292 50.4227 84.8415 39.0965
RightUpLeg  -24.0187 -13.0725 -6.87572
RightLeg  21.8203 -0.257794 -0.301109
RightFoot  -6.37568 -0.167512 2.8916
RightToes  -3.31784e-009 0 -3.6325e-017
Spine  36.5971 -0.131086 4.01126
Spine1  0.367544 0.958905 0.677692
HEad  -30.0836 0.573182 -9.73745
LeftShoulder1  0.446664 2.30124 -30.9472
LeftArm  2.88027 -4.9452 -43.2847
LeftForeArm  27.0099 -12.3874 -8.59356
LeftHand  -0.00570716 9.00354 1.29457
RightShoulder  -0.466116 -4.80518 28.8404
RightArm  18.8253 -8.79906 43.6106
RightForeArm  17.456 9.70729 7.97548
RightHand  -0.120371 3.99644 -1.78967
LeftUpLeg  -21.9737 13.9764 3.24017
LeftLeg  16.6795 0.550764 0.36294
LeftFoot  1.89484 0.528734 -4.65463
LeftToes  1.28511e-009 -3.60458e-011 6.16399e-011
367
root  25.4039 39.2734 3.21085 38.558 84.3977 28.3918
RightUpLeg  -19.2735 -11.5788 -6.48143
RightLeg  17.1919 -0.625305 -0.301527
RightFoot  -5.26484 -0.14611 2.06278
RightToes  -3.31784e-009 0 -3.6325e-017
Spine  34.0259 -0.149049 4.87641
Spine1  0.479432 1.2267 -0.187195
HEad  -28.2462 1.88805 -9.74944
LeftShoulder1  0.240875 2.87881 -32.3744
LeftArm  0.207763 0.630696 -39.7005
LeftForeArm  31.5591 -9.83054 -9.30162
LeftHand  -0.0396696 9.7636 0.341842
RightShoulder  -0.663633 -5.3081 30.0714
RightArm  17.4389 -11.636 42.633
RightForeArm  17.2542 9.45734 7.58245
RightHand  -0.232335 4.86943 -2.76598
LeftUpLeg  -18.1028 13.7419 5.1867
LeftLeg  14.4877 1.53388 0.301107
LeftFoot  3.55611 0.818358 -6.42691
LeftToes  1.28511e-009 -3.60458e-011 6.16399e-011
368
root  26.0953 39.4306 3.5318 34.1901 84.1974 25.662
RightUpLeg  -15.0975 -10.6774 -6.65602
RightLeg  14.9259 -0.999819 -0.10401
RightFoot  -5.57698 -0.129529 1.82538
RightToes  -3.31784e-009 0 -3.6325e-017
Spine  31.8256 -0.305837 5.69983
Spine1  0.797143 1.25821 -0.78976
HEad  -27.9315 2.24915 -9.18532
LeftShoulder1  0.0101755 3.47715 -33.3346
LeftArm  1.16392 6.46207 -36.1418
LeftForeArm  31.3233 -10.3983 -9.14822
LeftHand  -0.0858132 9.87088 -0.804474
RightShoulder  -0.79003 -5.61746 30.7223
RightArm  16.5124 -13.6264 42.4526
RightForeArm  12.4773 10.179 7.20912
RightHand  -0.622357 7.32073 -6.09205
LeftUpLeg  -16.0121 14.2941 6.34909
LeftLeg  16.0717 0.865119 0.459572
LeftFoot  4.23438 1.16846 -8.72721
LeftToes  1.28511e-009 -3.60458e-011 6.16399e-011
